<svg width="574" height="202" viewBox="0 0 574 202" fill="none" xmlns="http://www.w3.org/2000/svg">
<path d="M517.123 48C546.923 48 566.724 66.3999 566.724 92.7998C566.724 118.4 551.523 130 540.923 130V131.8C552.123 131.8 567.723 138.6 567.724 159.6C567.724 186.2 548.923 202 518.123 202C486.323 202 468.523 185 468.523 155H487.523C487.523 174.2 498.123 184.2 518.123 184.2C537.923 184.2 548.724 175.4 548.724 158.8C548.723 140 528.723 140 517.123 140C487.323 140 467.523 121.6 467.523 94C467.523 66.4001 487.323 48.0001 517.123 48ZM234.484 47.7998C249.284 47.7998 261.084 49.4005 271.884 53.4004V71.2002C264.884 68.6002 250.084 64.2002 232.484 64.2002C216.085 64.2002 208.084 68.1999 208.084 75.7998C208.084 95.9998 276.084 84.8 276.084 120.8C276.084 140.4 260.684 152.2 230.685 152.2C215.885 152.2 204.084 150.6 193.284 146.6V128.8C200.284 131.4 215.285 135.8 232.685 135.8C249.084 135.8 256.884 129.8 256.884 122.2C256.884 102.2 189.084 113.2 189.084 77.2002C189.084 57.4002 204.684 47.7998 234.484 47.7998ZM126.943 48C157.143 48 177.744 66.3998 177.544 96.5996V102.2H93.3438C93.7438 121.2 106.944 134.6 127.344 134.6C143.544 134.6 154.544 125.8 158.144 112.2H177.544C173.144 137.2 154.543 152 126.943 152C95.3435 152 74.3438 131.2 74.3438 100C74.3438 68.8001 95.3435 48.0001 126.943 48ZM402.248 48C433.848 48 454.849 68.8 454.849 100V150H435.849V130.2L433.849 130.4V132.2C433.848 140.2 421.848 152 398.248 152C369.448 152 349.649 131.8 349.648 101.2C349.648 68.8003 370.448 48.0001 402.248 48ZM81.2002 17.7998H64.5996C44.3997 17.7999 33.7998 28.2001 33.7998 48V50H70.2002V66.4004H33.7998V150H14.7998V66.4004H0V50H14.7998C15.1998 18.6001 32.5997 7.78027e-05 64.5996 0H81.2002V17.7998ZM306.047 51.2002H343.446V68.2002H306.047V97.7998C306.047 122.4 315.247 131.8 343.446 131.8V150C303.047 150 287.047 133 287.047 95V29.2002H306.047V51.2002ZM402.248 65.7998C382.048 65.7999 368.648 79.6001 368.648 100C368.648 121 381.048 134.2 401.648 134.2C426.448 134.2 435.648 120.2 435.648 100C435.648 79 422.848 65.7998 402.248 65.7998ZM517.123 65.7998C498.323 65.7999 486.523 76.6001 486.523 94C486.523 111.2 498.323 122.2 517.123 122.2C536.723 122.2 547.724 114.4 547.724 94C547.724 76.4 535.923 65.7998 517.123 65.7998ZM127.144 64.2002C110.744 64.2002 98.7432 73.9997 94.7432 87.5996H157.743C154.743 72.9999 143.543 64.2002 127.144 64.2002ZM560.323 28.2002C568.123 28.2002 573.323 33 573.323 40C573.323 47.2 568.123 51.7998 560.323 51.7998C552.523 51.7998 547.523 47.2 547.523 40C547.523 33 552.523 28.2002 560.323 28.2002Z" fill="black" style="fill:black;fill-opacity:1;"/>
</svg>
