<svg width="35" height="13" viewBox="0 0 35 13" fill="none" xmlns="http://www.w3.org/2000/svg">
<path d="M5.03923 -7.15256e-07V1.356H3.97123C2.90323 1.356 2.31523 1.884 2.31523 2.88V3H4.37923V4.212H2.31523V9H0.887234V4.212H-0.000765607V3H0.887234C0.947234 1.068 2.01523 -7.15256e-07 4.07923 -7.15256e-07H5.03923ZM10.8042 6.216H6.0522C6.0882 7.14 6.7482 7.812 7.8042 7.812C8.6082 7.812 9.1482 7.404 9.3282 6.804H10.8042C10.5402 8.292 9.4242 9.12 7.7682 9.12C5.8722 9.12 4.6122 7.872 4.6122 6C4.6122 4.128 5.8722 2.88 7.7682 2.88C9.5202 2.88 10.8042 3.972 10.8042 5.856V6.216ZM6.1242 5.244H9.2922C9.1722 4.524 8.6202 4.056 7.7802 4.056C6.9402 4.056 6.3402 4.584 6.1242 5.244ZM11.3912 4.704C11.3912 3.456 12.3632 2.868 14.1152 2.868C15.0032 2.868 15.7112 2.964 16.3592 3.204V4.5C15.9272 4.344 15.0392 4.068 13.9952 4.068C13.2032 4.068 12.8312 4.26 12.8312 4.608C12.8312 5.652 16.6112 5.052 16.6112 7.212C16.6112 8.46 15.6392 9.132 13.8872 9.132C12.9992 9.132 12.2912 9.036 11.6312 8.796V7.5C12.0632 7.656 12.9512 7.932 13.9952 7.932C14.7992 7.932 15.1592 7.656 15.1592 7.308C15.1592 6.276 11.3912 6.864 11.3912 4.704ZM20.6675 9C18.1595 9 17.1635 7.8 17.1635 5.316V1.752H18.6035V3.072H20.6675V4.356H18.6035V5.532C18.6035 6.984 19.1075 7.584 20.6675 7.584V9ZM21.0367 6.096C21.0367 4.08 22.2847 2.88 24.1927 2.88C26.0767 2.88 27.3367 4.128 27.3487 6V9H25.8967V7.776L25.7887 7.788V7.896C25.7887 8.448 25.1047 9.12 23.8087 9.12C22.1527 9.12 21.0367 7.92 21.0367 6.096ZM22.4647 6C22.4647 7.08 23.1127 7.764 24.1567 7.764C25.3807 7.764 25.8967 7.044 25.8967 6C25.8967 4.92 25.2367 4.236 24.1927 4.236C23.1607 4.236 22.4647 4.944 22.4647 6ZM32.696 2.316C32.696 1.824 33.056 1.5 33.596 1.5C34.136 1.5 34.496 1.824 34.496 2.316C34.496 2.808 34.136 3.132 33.596 3.132C33.056 3.132 32.696 2.808 32.696 2.316ZM27.992 5.64C27.992 3.984 29.18 2.88 30.968 2.88C32.744 2.88 33.944 3.984 33.944 5.568C33.944 7.08 32.996 7.728 32.408 7.728V7.848C33.08 7.848 34.004 8.28 34.004 9.552C34.004 11.148 32.852 12.12 31.028 12.12C29.156 12.12 28.052 11.064 28.052 9.3H29.492C29.48 10.248 30.032 10.764 31.028 10.764C32.012 10.764 32.564 10.296 32.564 9.456C32.564 8.52 31.664 8.4 30.968 8.4C29.18 8.4 27.992 7.296 27.992 5.64ZM29.42 5.64C29.42 6.492 30.032 7.056 30.968 7.056C32.024 7.056 32.504 6.624 32.504 5.64C32.504 4.776 31.904 4.224 30.968 4.224C30.02 4.224 29.42 4.776 29.42 5.64Z" fill="black" style="fill:black;fill-opacity:1;"/>
</svg>
