<svg preserveAspectRatio="none" width="100%" height="100%" overflow="visible" style="display: block;" viewBox="0 0 98 53" fill="none" xmlns="http://www.w3.org/2000/svg">
<g id="Frame 71" filter="url(#filter0_dd_0_4)">
<rect x="4" y="3" width="90" height="45" rx="22.5" fill="var(--fill-0, white)" style="fill:white;fill-opacity:1;" shape-rendering="crispEdges"/>
<path id="Vector" d="M35.3341 32.5L30.2195 27.3853C29.8124 27.7214 29.3441 27.9845 28.8148 28.1745C28.2855 28.3645 27.7379 28.4595 27.1721 28.4595C25.7815 28.4595 24.6038 27.9773 23.6391 27.0127C22.6745 26.048 22.1922 24.8704 22.1922 23.4798C22.1922 22.0892 22.6745 20.9115 23.6391 19.9468C24.6038 18.9823 25.7815 18.5 27.1721 18.5C28.5627 18.5 29.7404 18.9823 30.7051 19.9468C31.6697 20.9115 32.1519 22.0892 32.1519 23.4798C32.1519 24.0613 32.0544 24.6168 31.8592 25.1461C31.6639 25.6754 31.4034 26.1357 31.0776 26.5272L36.1922 31.6417L35.3341 32.5ZM27.1721 27.2383C28.2214 27.2383 29.1101 26.8741 29.8382 26.1459C30.5665 25.4177 30.9306 24.529 30.9306 23.4798C30.9306 22.4305 30.5665 21.5418 29.8382 20.8137C29.1101 20.0854 28.2214 19.7213 27.1721 19.7213C26.1228 19.7213 25.2341 20.0854 24.506 20.8137C23.7777 21.5418 23.4135 22.4305 23.4135 23.4798C23.4135 24.529 23.7777 25.4177 24.506 26.1459C25.2341 26.8741 26.1228 27.2383 27.1721 27.2383Z" fill="var(--fill-0, #28292C)" style="fill:#28292C;fill:color(display-p3 0.1552 0.1597 0.1721);fill-opacity:1;"/>
<path id="Vector_2" d="M62 33.3077C61.4948 33.3077 61.0672 33.1327 60.7172 32.7827C60.3672 32.4327 60.1922 32.0052 60.1922 31.5C60.1922 30.9948 60.3672 30.5672 60.7172 30.2172C61.0672 29.8672 61.4948 29.6922 62 29.6922C62.5052 29.6922 62.9327 29.8672 63.2827 30.2172C63.6327 30.5672 63.8077 30.9948 63.8077 31.5C63.8077 32.0052 63.6327 32.4327 63.2827 32.7827C62.9327 33.1327 62.5052 33.3077 62 33.3077ZM70 33.3077C69.4948 33.3077 69.0672 33.1327 68.7172 32.7827C68.3672 32.4327 68.1922 32.0052 68.1922 31.5C68.1922 30.9948 68.3672 30.5672 68.7172 30.2172C69.0672 29.8672 69.4948 29.6922 70 29.6922C70.5052 29.6922 70.9327 29.8672 71.2827 30.2172C71.6327 30.5672 71.8077 30.9948 71.8077 31.5C71.8077 32.0052 71.6327 32.4327 71.2827 32.7827C70.9327 33.1327 70.5052 33.3077 70 33.3077ZM66 29.3077C65.4948 29.3077 65.0672 29.1327 64.7172 28.7827C64.3672 28.4327 64.1922 28.0052 64.1922 27.5C64.1922 26.9948 64.3672 26.5672 64.7172 26.2172C65.0672 25.8672 65.4948 25.6922 66 25.6922C66.5052 25.6922 66.9327 25.8672 67.2827 26.2172C67.6327 26.5672 67.8077 26.9948 67.8077 27.5C67.8077 28.0052 67.6327 28.4327 67.2827 28.7827C66.9327 29.1327 66.5052 29.3077 66 29.3077ZM74 29.3077C73.4948 29.3077 73.0672 29.1327 72.7172 28.7827C72.3672 28.4327 72.1922 28.0052 72.1922 27.5C72.1922 26.9948 72.3672 26.5672 72.7172 26.2172C73.0672 25.8672 73.4948 25.6922 74 25.6922C74.5052 25.6922 74.9327 25.8672 75.2827 26.2172C75.6327 26.5672 75.8077 26.9948 75.8077 27.5C75.8077 28.0052 75.6327 28.4327 75.2827 28.7827C74.9327 29.1327 74.5052 29.3077 74 29.3077ZM62 25.3077C61.4948 25.3077 61.0672 25.1327 60.7172 24.7827C60.3672 24.4327 60.1922 24.0052 60.1922 23.5C60.1922 22.9948 60.3672 22.5672 60.7172 22.2172C61.0672 21.8672 61.4948 21.6922 62 21.6922C62.5052 21.6922 62.9327 21.8672 63.2827 22.2172C63.6327 22.5672 63.8077 22.9948 63.8077 23.5C63.8077 24.0052 63.6327 24.4327 63.2827 24.7827C62.9327 25.1327 62.5052 25.3077 62 25.3077ZM70 25.3077C69.4948 25.3077 69.0672 25.1327 68.7172 24.7827C68.3672 24.4327 68.1922 24.0052 68.1922 23.5C68.1922 22.9948 68.3672 22.5672 68.7172 22.2172C69.0672 21.8672 69.4948 21.6922 70 21.6922C70.5052 21.6922 70.9327 21.8672 71.2827 22.2172C71.6327 22.5672 71.8077 22.9948 71.8077 23.5C71.8077 24.0052 71.6327 24.4327 71.2827 24.7827C70.9327 25.1327 70.5052 25.3077 70 25.3077ZM66 21.3077C65.4948 21.3077 65.0672 21.1327 64.7172 20.7827C64.3672 20.4327 64.1922 20.0052 64.1922 19.5C64.1922 18.9948 64.3672 18.5672 64.7172 18.2172C65.0672 17.8672 65.4948 17.6922 66 17.6922C66.5052 17.6922 66.9327 17.8672 67.2827 18.2172C67.6327 18.5672 67.8077 18.9948 67.8077 19.5C67.8077 20.0052 67.6327 20.4327 67.2827 20.7827C66.9327 21.1327 66.5052 21.3077 66 21.3077ZM74 21.3077C73.4948 21.3077 73.0672 21.1327 72.7172 20.7827C72.3672 20.4327 72.1922 20.0052 72.1922 19.5C72.1922 18.9948 72.3672 18.5672 72.7172 18.2172C73.0672 17.8672 73.4948 17.6922 74 17.6922C74.5052 17.6922 74.9327 17.8672 75.2827 18.2172C75.6327 18.5672 75.8077 18.9948 75.8077 19.5C75.8077 20.0052 75.6327 20.4327 75.2827 20.7827C74.9327 21.1327 74.5052 21.3077 74 21.3077Z" fill="var(--fill-0, #3B3E3F)" style="fill:#3B3E3F;fill:color(display-p3 0.2303 0.2428 0.2470);fill-opacity:1;"/>
</g>
<defs>
<filter id="filter0_dd_0_4" x="0" y="0" width="98" height="53" filterUnits="userSpaceOnUse" color-interpolation-filters="sRGB">
<feFlood flood-opacity="0" result="BackgroundImageFix"/>
<feColorMatrix in="SourceAlpha" type="matrix" values="0 0 0 0 0 0 0 0 0 0 0 0 0 0 0 0 0 0 127 0" result="hardAlpha"/>
<feOffset dy="1"/>
<feGaussianBlur stdDeviation="2"/>
<feComposite in2="hardAlpha" operator="out"/>
<feColorMatrix type="matrix" values="0 0 0 0 0.180392 0 0 0 0 0.184314 0 0 0 0 0.2 0 0 0 0.1 0"/>
<feBlend mode="normal" in2="BackgroundImageFix" result="effect1_dropShadow_0_4"/>
<feColorMatrix in="SourceAlpha" type="matrix" values="0 0 0 0 0 0 0 0 0 0 0 0 0 0 0 0 0 0 127 0" result="hardAlpha"/>
<feOffset/>
<feComposite in2="hardAlpha" operator="out"/>
<feColorMatrix type="matrix" values="0 0 0 0 0.356863 0 0 0 0 0.392157 0 0 0 0 0.490196 0 0 0 0.25 0"/>
<feBlend mode="normal" in2="effect1_dropShadow_0_4" result="effect2_dropShadow_0_4"/>
<feBlend mode="normal" in="SourceGraphic" in2="effect2_dropShadow_0_4" result="shape"/>
</filter>
</defs>
</svg>
