<svg preserveAspectRatio="none" width="100%" height="100%" overflow="visible" style="display: block;" viewBox="0 0 70 70" fill="none" xmlns="http://www.w3.org/2000/svg">
<g id="Frame 64" filter="url(#filter0_di_0_11)">
<rect x="5" y="3" width="60" height="60" rx="30" fill="var(--fill-0, #5B647D)" style="fill:#5B647D;fill:color(display-p3 0.3569 0.3922 0.4902);fill-opacity:1;"/>
<path id="Vector" d="M27.5 40.3921V25.6079C27.5 25.1205 27.6625 24.7307 27.9876 24.4384C28.3127 24.1461 28.6921 24 29.1259 24C29.2678 24 29.4116 24.0186 29.5572 24.0557C29.7031 24.0926 29.847 24.148 29.9889 24.2219L41.7487 31.6524C41.9993 31.8259 42.1872 32.0238 42.3123 32.2461C42.4374 32.468 42.5 32.7193 42.5 33C42.5 33.2807 42.4374 33.532 42.3123 33.7539C42.1872 33.9762 41.9993 34.1741 41.7487 34.3476L29.9889 41.778C29.847 41.852 29.7031 41.9074 29.5572 41.9443C29.4116 41.9814 29.2678 42 29.1259 42C28.6921 42 28.3127 41.8539 27.9876 41.5616C27.6625 41.2693 27.5 40.8795 27.5 40.3921Z" fill="var(--fill-0, #FCFCFC)" style="fill:#FCFCFC;fill:color(display-p3 0.9882 0.9882 0.9882);fill-opacity:1;"/>
</g>
<defs>
<filter id="filter0_di_0_11" x="0" y="0" width="70" height="70" filterUnits="userSpaceOnUse" color-interpolation-filters="sRGB">
<feFlood flood-opacity="0" result="BackgroundImageFix"/>
<feColorMatrix in="SourceAlpha" type="matrix" values="0 0 0 0 0 0 0 0 0 0 0 0 0 0 0 0 0 0 127 0" result="hardAlpha"/>
<feMorphology radius="1" operator="dilate" in="SourceAlpha" result="effect1_dropShadow_0_11"/>
<feOffset dy="2"/>
<feGaussianBlur stdDeviation="2"/>
<feComposite in2="hardAlpha" operator="out"/>
<feColorMatrix type="matrix" values="0 0 0 0 0.563812 0 0 0 0 0.586095 0 0 0 0 0.623235 0 0 0 0.5 0"/>
<feBlend mode="normal" in2="BackgroundImageFix" result="effect1_dropShadow_0_11"/>
<feBlend mode="normal" in="SourceGraphic" in2="BackgroundImageFix" result="shape"/>
<feColorMatrix in="SourceAlpha" type="matrix" values="0 0 0 0 0 0 0 0 0 0 0 0 0 0 0 0 0 0 127 0" result="hardAlpha"/>
<feOffset dy="4"/>
<feGaussianBlur stdDeviation="2"/>
<feComposite in2="hardAlpha" operator="arithmetic" k2="-1" k3="1"/>
<feColorMatrix type="matrix" values="0 0 0 0 0.517647 0 0 0 0 0.552941 0 0 0 0 0.607843 0 0 0 0.25 0"/>
<feBlend mode="normal" in2="shape" result="effect2_innerShadow_0_11"/>
<feBlend mode="normal" in="effect2_innerShadow_0_11" in2="effect1_dropShadow_0_11" result="effect2_innerShadow_0_11"/>
</filter>
</defs>
</svg>
