<svg preserveAspectRatio="none" width="100%" height="100%" overflow="visible" style="display: block;" viewBox="0 0 24 24" fill="none" xmlns="http://www.w3.org/2000/svg">
<g id="arrow_upload_ready_24dp_2A3032_FILL0_wght300_GRAD0_opsz24 1">
<path id="Vector" d="M4.19225 13.7595C4.29875 14.2198 4.43725 14.6603 4.60775 15.0808C4.77825 15.5013 4.98083 15.8987 5.2155 16.273C5.33983 16.4653 5.39008 16.6712 5.36625 16.8905C5.34258 17.1097 5.25833 17.2917 5.1135 17.4365C4.96867 17.5813 4.79242 17.6464 4.58475 17.6318C4.37692 17.6169 4.21408 17.5185 4.09625 17.3365C3.74625 16.7903 3.452 16.2243 3.2135 15.6385C2.975 15.0525 2.78908 14.4364 2.65575 13.7903C2.60192 13.5878 2.64167 13.4054 2.775 13.2433C2.90833 13.0811 3.07825 13 3.28475 13C3.49742 13 3.68583 13.0693 3.85 13.2078C4.01417 13.3461 4.12825 13.53 4.19225 13.7595ZM5.225 7.70775C4.984 8.08208 4.77983 8.48108 4.6125 8.90475C4.44517 9.32858 4.30833 9.77383 4.202 10.2405C4.13783 10.47 4.02208 10.6539 3.85475 10.7923C3.68742 10.9308 3.49742 11 3.28475 11C3.07192 11 2.90042 10.9224 2.77025 10.7673C2.64008 10.6123 2.59875 10.4334 2.64625 10.2308C2.77308 9.57442 2.96317 8.94142 3.2165 8.33175C3.46967 7.72208 3.77767 7.15767 4.1405 6.6385C4.25833 6.47317 4.41692 6.38633 4.61625 6.378C4.81575 6.36967 4.98467 6.43467 5.123 6.573C5.268 6.718 5.35075 6.89683 5.37125 7.1095C5.39175 7.32233 5.343 7.52175 5.225 7.70775ZM7.69225 18.7345C8.08975 18.9858 8.49875 19.2009 8.91925 19.3798C9.33975 19.5586 9.76858 19.698 10.2058 19.798C10.4251 19.8622 10.6039 19.9753 10.7422 20.1375C10.8807 20.2997 10.95 20.4872 10.95 20.7C10.95 20.9063 10.8724 21.0737 10.7172 21.202C10.5622 21.3302 10.3834 21.3724 10.1808 21.3288C9.55775 21.2019 8.95233 21.0202 8.3645 20.7835C7.77667 20.547 7.20642 20.2473 6.65375 19.8845C6.47175 19.7667 6.36983 19.6039 6.348 19.3963C6.32633 19.1884 6.38467 19.007 6.523 18.852C6.67817 18.6968 6.86375 18.6074 7.07975 18.5838C7.29575 18.5599 7.49992 18.6102 7.69225 18.7345ZM10.2558 4.19225C9.79292 4.29875 9.35383 4.43725 8.9385 4.60775C8.523 4.77825 8.12617 4.98917 7.748 5.2405C7.5455 5.35833 7.33367 5.40958 7.1125 5.39425C6.89133 5.37892 6.70317 5.29367 6.548 5.1385C6.393 4.98983 6.32383 4.81575 6.3405 4.61625C6.35717 4.41692 6.45325 4.25833 6.62875 4.1405C7.18525 3.784 7.76575 3.48333 8.37025 3.2385C8.97475 2.99367 9.60325 2.80458 10.2558 2.67125C10.4481 2.62758 10.6202 2.66983 10.772 2.798C10.924 2.92633 11 3.09367 11 3.3C11 3.51283 10.9307 3.69875 10.7922 3.85775C10.6539 4.01675 10.4751 4.12825 10.2558 4.19225ZM16.277 18.7595C16.4628 18.6417 16.6663 18.5904 16.8875 18.6058C17.1087 18.6211 17.2968 18.7063 17.452 18.8615C17.607 19.0102 17.6762 19.1884 17.6595 19.3963C17.6428 19.6039 17.5468 19.7583 17.3713 19.8595C16.8251 20.216 16.2472 20.5167 15.6375 20.7615C15.0278 21.0063 14.3935 21.1954 13.7345 21.3288C13.532 21.3724 13.3507 21.3302 13.1905 21.202C13.0302 21.0737 12.95 20.9063 12.95 20.7C12.95 20.4872 13.0234 20.3013 13.1702 20.1423C13.3169 19.9833 13.4999 19.8718 13.7193 19.8078C14.1988 19.7013 14.6503 19.5612 15.074 19.3875C15.4978 19.2138 15.8988 19.0045 16.277 18.7595ZM13.7443 4.202C13.5249 4.13783 13.3461 4.02467 13.2077 3.8625C13.0692 3.70033 13 3.51283 13 3.3C13 3.09367 13.076 2.92633 13.228 2.798C13.3798 2.66983 13.5519 2.62433 13.7443 2.6615C14.3904 2.79483 15.0183 2.984 15.6278 3.229C16.2374 3.47383 16.8186 3.77767 17.3713 4.1405C17.5468 4.25833 17.6428 4.41692 17.6595 4.61625C17.6762 4.81575 17.6153 4.993 17.477 5.148C17.3218 5.30317 17.1378 5.39258 16.925 5.41625C16.7122 5.44008 16.5045 5.393 16.302 5.275C15.8878 5.02367 15.4673 4.80858 15.0405 4.62975C14.6135 4.45092 14.1814 4.30833 13.7443 4.202ZM19.8078 13.7443C19.8718 13.5249 19.9858 13.3461 20.15 13.2078C20.3142 13.0693 20.5026 13 20.7153 13C20.9281 13 21.0996 13.0811 21.2298 13.2433C21.3599 13.4054 21.4013 13.5878 21.3538 13.7903C21.2269 14.4364 21.0343 15.0593 20.776 15.6588C20.5177 16.2581 20.2122 16.8173 19.8595 17.3365C19.7417 17.5018 19.5831 17.5928 19.3838 17.6095C19.1843 17.6262 19.0153 17.5653 18.877 17.427C18.732 17.282 18.6493 17.099 18.6288 16.878C18.6083 16.6568 18.657 16.4533 18.775 16.2673C19.016 15.8828 19.2218 15.4828 19.3923 15.0673C19.5628 14.6519 19.7013 14.2109 19.8078 13.7443ZM18.7845 7.727C18.6602 7.53467 18.6099 7.32883 18.6338 7.1095C18.6574 6.89033 18.7417 6.70833 18.8865 6.5635C19.0313 6.41867 19.2034 6.35617 19.4028 6.376C19.6023 6.39583 19.7609 6.49167 19.8788 6.6635C20.2391 7.20967 20.5427 7.77925 20.7895 8.37225C21.0362 8.96508 21.2262 9.58458 21.3595 10.2308C21.4032 10.4334 21.3583 10.6123 21.225 10.7673C21.0917 10.9224 20.9218 11 20.7153 11C20.5026 11 20.3142 10.9308 20.15 10.7923C19.9858 10.6539 19.8718 10.47 19.8078 10.2405C19.7013 9.78017 19.5628 9.33975 19.3923 8.91925C19.2218 8.49875 19.0192 8.10133 18.7845 7.727ZM11.45 16.4385C11.3065 16.2948 11.2348 16.1166 11.2348 15.9038V10.25L8.927 12.573C8.77183 12.7282 8.59358 12.8058 8.39225 12.8058C8.19108 12.8058 8.01292 12.7282 7.85775 12.573C7.70258 12.4178 7.62242 12.2397 7.61725 12.0385C7.61225 11.8372 7.68725 11.6589 7.84225 11.5038L11.352 7.97875C11.5225 7.80825 11.7333 7.723 11.9845 7.723C12.2358 7.723 12.4467 7.80825 12.6172 7.97875L16.0963 11.4578C16.2513 11.6129 16.3313 11.7937 16.3365 12C16.3417 12.2063 16.2667 12.3871 16.1115 12.5423C15.9563 12.6974 15.7756 12.775 15.5693 12.775C15.3629 12.775 15.1822 12.6974 15.027 12.5423L12.7345 10.25V15.9038C12.7345 16.1166 12.6627 16.2948 12.5192 16.4385C12.3756 16.582 12.1973 16.6538 11.9845 16.6538C11.7718 16.6538 11.5937 16.582 11.45 16.4385Z" fill="var(--fill-0, #5B647D)" style="fill:#5B647D;fill:color(display-p3 0.3569 0.3922 0.4902);fill-opacity:1;"/>
</g>
</svg>
